<mxfile host="app.diagrams.net" modified="2020-04-22T02:46:11.994Z" agent="5.0 (Windows)" etag="dUZgBlz4zqnH09K_3gGq" version="13.0.1" type="github" pages="2">
  <diagram id="C5RBs43oDa-KdzZeNtuy" name="Board.h/Constructors/Destructors">
    <mxGraphModel dx="1422" dy="755" grid="1" gridSize="10" guides="1" tooltips="1" connect="1" arrows="1" fold="1" page="1" pageScale="1" pageWidth="827" pageHeight="1169" math="0" shadow="0">
      <root>
        <mxCell id="WIyWlLk6GJQsqaUBKTNV-0" />
        <mxCell id="WIyWlLk6GJQsqaUBKTNV-1" parent="WIyWlLk6GJQsqaUBKTNV-0" />
        <mxCell id="XQVjbtKCl2bdh1NF3s56-1" value="&lt;b&gt;&lt;font style=&quot;font-size: 24px&quot;&gt;Board.h and Board Constructor/Destructors&lt;/font&gt;&lt;/b&gt;" style="text;html=1;strokeColor=none;fillColor=none;align=center;verticalAlign=middle;whiteSpace=wrap;rounded=0;strokeWidth=4;" vertex="1" parent="WIyWlLk6GJQsqaUBKTNV-1">
          <mxGeometry x="110" y="10" width="630" height="50" as="geometry" />
        </mxCell>
        <mxCell id="XQVjbtKCl2bdh1NF3s56-5" style="edgeStyle=orthogonalEdgeStyle;rounded=0;orthogonalLoop=1;jettySize=auto;html=1;exitX=0.5;exitY=1;exitDx=0;exitDy=0;entryX=0.5;entryY=0;entryDx=0;entryDy=0;" edge="1" parent="WIyWlLk6GJQsqaUBKTNV-1" source="XQVjbtKCl2bdh1NF3s56-2" target="XQVjbtKCl2bdh1NF3s56-3">
          <mxGeometry relative="1" as="geometry" />
        </mxCell>
        <mxCell id="XQVjbtKCl2bdh1NF3s56-2" value="&lt;div&gt;&lt;b&gt;System Libraries:&lt;/b&gt;&lt;/div&gt;&lt;div&gt;&lt;br&gt;&lt;/div&gt;&lt;div&gt;&amp;lt;cstdlib&amp;gt; &lt;br&gt;&lt;/div&gt;&lt;div&gt;&amp;lt;iostream&amp;gt; &lt;br&gt;&lt;/div&gt;&lt;div&gt;&amp;lt;Windows.h&amp;gt;&lt;/div&gt;&lt;div&gt;&amp;lt;stdlib.h&amp;gt;&lt;/div&gt;&lt;div&gt;&amp;lt;time.h&amp;gt;&amp;nbsp; &lt;br&gt;&lt;/div&gt;&lt;div&gt;&lt;br&gt;&lt;/div&gt;&lt;div&gt;&lt;b&gt;User Libraries:&lt;/b&gt;&lt;br&gt;&lt;/div&gt;&lt;div&gt;&quot;SnakePlayer.h&quot;&lt;br&gt;&lt;/div&gt;" style="rounded=0;whiteSpace=wrap;html=1;strokeWidth=1;" vertex="1" parent="WIyWlLk6GJQsqaUBKTNV-1">
          <mxGeometry x="50" y="160" width="120" height="230" as="geometry" />
        </mxCell>
        <mxCell id="XQVjbtKCl2bdh1NF3s56-6" style="edgeStyle=orthogonalEdgeStyle;rounded=0;orthogonalLoop=1;jettySize=auto;html=1;exitX=0.5;exitY=1;exitDx=0;exitDy=0;entryX=0.5;entryY=0;entryDx=0;entryDy=0;" edge="1" parent="WIyWlLk6GJQsqaUBKTNV-1" source="XQVjbtKCl2bdh1NF3s56-3" target="XQVjbtKCl2bdh1NF3s56-4">
          <mxGeometry relative="1" as="geometry" />
        </mxCell>
        <mxCell id="XQVjbtKCl2bdh1NF3s56-3" value="&lt;div&gt;&lt;b&gt;Variables:&lt;/b&gt;&lt;/div&gt;&lt;div&gt;&lt;b&gt;&lt;br&gt;&lt;/b&gt;&lt;/div&gt;&lt;div&gt;frameMax &lt;br&gt;&lt;/div&gt;&lt;div&gt;frame&lt;/div&gt;&lt;div&gt;rows&lt;/div&gt;&lt;div&gt;cols&lt;/div&gt;&lt;div&gt;bIsRun&lt;/div&gt;&lt;div&gt;player&lt;/div&gt;&lt;div&gt;pelletX&lt;/div&gt;&lt;div&gt;pelletY&lt;br&gt;&lt;/div&gt;&lt;div&gt;&lt;br&gt;&lt;/div&gt;" style="rounded=0;whiteSpace=wrap;html=1;strokeWidth=1;" vertex="1" parent="WIyWlLk6GJQsqaUBKTNV-1">
          <mxGeometry x="50" y="440" width="120" height="170" as="geometry" />
        </mxCell>
        <mxCell id="XQVjbtKCl2bdh1NF3s56-4" value="&lt;div&gt;&lt;b&gt;Function Prototypes:&lt;/b&gt;&lt;/div&gt;&lt;div&gt;&lt;b&gt;&lt;br&gt;&lt;/b&gt;&lt;/div&gt;&lt;div&gt;Board(int,int)&lt;/div&gt;&lt;div&gt;virtual ~Board()&lt;/div&gt;&lt;div&gt;void gameRoom()&lt;/div&gt;&lt;div&gt;void printBoard()&lt;br&gt;&lt;/div&gt;&lt;div&gt;&lt;br&gt;&lt;b&gt;&lt;/b&gt;&lt;/div&gt;" style="rounded=0;whiteSpace=wrap;html=1;strokeWidth=1;" vertex="1" parent="WIyWlLk6GJQsqaUBKTNV-1">
          <mxGeometry x="50" y="650" width="120" height="150" as="geometry" />
        </mxCell>
        <mxCell id="XQVjbtKCl2bdh1NF3s56-7" value="&lt;font style=&quot;font-size: 16px&quot;&gt;&lt;b&gt;Board.h&lt;/b&gt;&lt;/font&gt;" style="text;html=1;strokeColor=none;fillColor=none;align=center;verticalAlign=middle;whiteSpace=wrap;rounded=0;" vertex="1" parent="WIyWlLk6GJQsqaUBKTNV-1">
          <mxGeometry x="80" y="110" width="70" height="20" as="geometry" />
        </mxCell>
        <mxCell id="XQVjbtKCl2bdh1NF3s56-16" style="edgeStyle=orthogonalEdgeStyle;rounded=0;orthogonalLoop=1;jettySize=auto;html=1;exitX=0.5;exitY=1;exitDx=0;exitDy=0;entryX=0.5;entryY=0;entryDx=0;entryDy=0;" edge="1" parent="WIyWlLk6GJQsqaUBKTNV-1" source="XQVjbtKCl2bdh1NF3s56-11" target="XQVjbtKCl2bdh1NF3s56-13">
          <mxGeometry relative="1" as="geometry" />
        </mxCell>
        <mxCell id="XQVjbtKCl2bdh1NF3s56-11" value="Board(int rows, int cols)" style="ellipse;whiteSpace=wrap;html=1;strokeWidth=1;" vertex="1" parent="WIyWlLk6GJQsqaUBKTNV-1">
          <mxGeometry x="260" y="160" width="120" height="50" as="geometry" />
        </mxCell>
        <mxCell id="XQVjbtKCl2bdh1NF3s56-12" value="&lt;b&gt;&lt;font style=&quot;font-size: 16px&quot;&gt;virtual~Board()&lt;/font&gt;&lt;/b&gt;" style="text;html=1;strokeColor=none;fillColor=none;align=center;verticalAlign=middle;whiteSpace=wrap;rounded=0;" vertex="1" parent="WIyWlLk6GJQsqaUBKTNV-1">
          <mxGeometry x="490" y="115" width="125" height="30" as="geometry" />
        </mxCell>
        <mxCell id="XQVjbtKCl2bdh1NF3s56-17" style="edgeStyle=orthogonalEdgeStyle;rounded=0;orthogonalLoop=1;jettySize=auto;html=1;exitX=0.5;exitY=1;exitDx=0;exitDy=0;entryX=0.5;entryY=0;entryDx=0;entryDy=0;" edge="1" parent="WIyWlLk6GJQsqaUBKTNV-1" source="XQVjbtKCl2bdh1NF3s56-13" target="XQVjbtKCl2bdh1NF3s56-15">
          <mxGeometry relative="1" as="geometry" />
        </mxCell>
        <mxCell id="XQVjbtKCl2bdh1NF3s56-13" value="&lt;div&gt;this-&amp;gt;rows = rows&lt;/div&gt;&lt;div&gt;this-&amp;gt;cols = cols&lt;/div&gt;&lt;div&gt;srand (time(0))&lt;/div&gt;&lt;div&gt;pelletX = rand() % cols&lt;br&gt;&lt;/div&gt;pelletY = rand() % rows" style="rounded=0;whiteSpace=wrap;html=1;strokeWidth=1;" vertex="1" parent="WIyWlLk6GJQsqaUBKTNV-1">
          <mxGeometry x="251.25" y="245" width="137.5" height="115" as="geometry" />
        </mxCell>
        <mxCell id="XQVjbtKCl2bdh1NF3s56-15" value="exit" style="ellipse;whiteSpace=wrap;html=1;strokeWidth=1;" vertex="1" parent="WIyWlLk6GJQsqaUBKTNV-1">
          <mxGeometry x="260" y="400" width="120" height="50" as="geometry" />
        </mxCell>
        <mxCell id="XQVjbtKCl2bdh1NF3s56-18" value="&lt;font style=&quot;font-size: 16px&quot;&gt;&lt;b&gt;Board(int,int)&lt;/b&gt;&lt;/font&gt;" style="text;html=1;strokeColor=none;fillColor=none;align=center;verticalAlign=middle;whiteSpace=wrap;rounded=0;" vertex="1" parent="WIyWlLk6GJQsqaUBKTNV-1">
          <mxGeometry x="267.5" y="115" width="125" height="30" as="geometry" />
        </mxCell>
        <mxCell id="XQVjbtKCl2bdh1NF3s56-22" style="edgeStyle=orthogonalEdgeStyle;rounded=0;orthogonalLoop=1;jettySize=auto;html=1;exitX=0.5;exitY=1;exitDx=0;exitDy=0;entryX=0.5;entryY=0;entryDx=0;entryDy=0;" edge="1" parent="WIyWlLk6GJQsqaUBKTNV-1" source="XQVjbtKCl2bdh1NF3s56-19" target="XQVjbtKCl2bdh1NF3s56-20">
          <mxGeometry relative="1" as="geometry" />
        </mxCell>
        <mxCell id="XQVjbtKCl2bdh1NF3s56-19" value="virtual~Board()" style="ellipse;whiteSpace=wrap;html=1;strokeWidth=1;" vertex="1" parent="WIyWlLk6GJQsqaUBKTNV-1">
          <mxGeometry x="490" y="160" width="120" height="50" as="geometry" />
        </mxCell>
        <mxCell id="XQVjbtKCl2bdh1NF3s56-23" style="edgeStyle=orthogonalEdgeStyle;rounded=0;orthogonalLoop=1;jettySize=auto;html=1;exitX=0.5;exitY=1;exitDx=0;exitDy=0;entryX=0.5;entryY=0;entryDx=0;entryDy=0;" edge="1" parent="WIyWlLk6GJQsqaUBKTNV-1" source="XQVjbtKCl2bdh1NF3s56-20" target="XQVjbtKCl2bdh1NF3s56-21">
          <mxGeometry relative="1" as="geometry" />
        </mxCell>
        <mxCell id="XQVjbtKCl2bdh1NF3s56-20" value="delete player" style="rounded=0;whiteSpace=wrap;html=1;strokeWidth=1;" vertex="1" parent="WIyWlLk6GJQsqaUBKTNV-1">
          <mxGeometry x="490" y="260" width="120" height="60" as="geometry" />
        </mxCell>
        <mxCell id="XQVjbtKCl2bdh1NF3s56-21" value="exit" style="ellipse;whiteSpace=wrap;html=1;strokeWidth=1;" vertex="1" parent="WIyWlLk6GJQsqaUBKTNV-1">
          <mxGeometry x="490" y="400" width="120" height="50" as="geometry" />
        </mxCell>
      </root>
    </mxGraphModel>
  </diagram>
  <diagram id="qyI2qFHQQ_QogcaHKgvj" name="Board-gameRoom()">
    <mxGraphModel dx="1422" dy="755" grid="1" gridSize="10" guides="1" tooltips="1" connect="1" arrows="1" fold="1" page="1" pageScale="1" pageWidth="850" pageHeight="1100" math="0" shadow="0">
      <root>
        <mxCell id="JDOxM7exHH1KjUrmYhps-0" />
        <mxCell id="JDOxM7exHH1KjUrmYhps-1" parent="JDOxM7exHH1KjUrmYhps-0" />
        <mxCell id="JDOxM7exHH1KjUrmYhps-2" value="&lt;font style=&quot;font-size: 24px&quot;&gt;&lt;b&gt;gameRoom()&lt;/b&gt;&lt;/font&gt;" style="text;html=1;strokeColor=none;fillColor=none;align=center;verticalAlign=middle;whiteSpace=wrap;rounded=0;" vertex="1" parent="JDOxM7exHH1KjUrmYhps-1">
          <mxGeometry x="345" y="30" width="160" height="50" as="geometry" />
        </mxCell>
        <mxCell id="JDOxM7exHH1KjUrmYhps-29" style="edgeStyle=orthogonalEdgeStyle;rounded=0;orthogonalLoop=1;jettySize=auto;html=1;exitX=1;exitY=0.5;exitDx=0;exitDy=0;entryX=0;entryY=0.5;entryDx=0;entryDy=0;" edge="1" parent="JDOxM7exHH1KjUrmYhps-1" source="JDOxM7exHH1KjUrmYhps-3" target="JDOxM7exHH1KjUrmYhps-5">
          <mxGeometry relative="1" as="geometry" />
        </mxCell>
        <mxCell id="JDOxM7exHH1KjUrmYhps-3" value="player = new SnakePlayer(rows, cols)" style="shape=process;whiteSpace=wrap;html=1;backgroundOutline=1;strokeWidth=1;" vertex="1" parent="JDOxM7exHH1KjUrmYhps-1">
          <mxGeometry x="40" y="185" width="280" height="40" as="geometry" />
        </mxCell>
        <mxCell id="JDOxM7exHH1KjUrmYhps-28" style="edgeStyle=orthogonalEdgeStyle;rounded=0;orthogonalLoop=1;jettySize=auto;html=1;exitX=0.5;exitY=1;exitDx=0;exitDy=0;entryX=0.5;entryY=0;entryDx=0;entryDy=0;" edge="1" parent="JDOxM7exHH1KjUrmYhps-1" source="JDOxM7exHH1KjUrmYhps-4" target="JDOxM7exHH1KjUrmYhps-3">
          <mxGeometry relative="1" as="geometry" />
        </mxCell>
        <mxCell id="JDOxM7exHH1KjUrmYhps-4" value="gameRoom()" style="ellipse;whiteSpace=wrap;html=1;strokeWidth=1;" vertex="1" parent="JDOxM7exHH1KjUrmYhps-1">
          <mxGeometry x="120" y="100" width="120" height="50" as="geometry" />
        </mxCell>
        <mxCell id="JDOxM7exHH1KjUrmYhps-26" style="edgeStyle=orthogonalEdgeStyle;rounded=0;orthogonalLoop=1;jettySize=auto;html=1;exitX=1;exitY=0.5;exitDx=0;exitDy=0;entryX=0;entryY=0.5;entryDx=0;entryDy=0;" edge="1" parent="JDOxM7exHH1KjUrmYhps-1" source="JDOxM7exHH1KjUrmYhps-5" target="JDOxM7exHH1KjUrmYhps-25">
          <mxGeometry relative="1" as="geometry" />
        </mxCell>
        <mxCell id="JDOxM7exHH1KjUrmYhps-30" style="edgeStyle=orthogonalEdgeStyle;rounded=0;orthogonalLoop=1;jettySize=auto;html=1;exitX=0.5;exitY=1;exitDx=0;exitDy=0;entryX=0.5;entryY=0;entryDx=0;entryDy=0;" edge="1" parent="JDOxM7exHH1KjUrmYhps-1" source="JDOxM7exHH1KjUrmYhps-5" target="JDOxM7exHH1KjUrmYhps-6">
          <mxGeometry relative="1" as="geometry" />
        </mxCell>
        <mxCell id="JDOxM7exHH1KjUrmYhps-5" value="this-&amp;gt;bIsRun &amp;amp;&amp;amp; !player-&amp;gt;getGameOver()" style="rhombus;whiteSpace=wrap;html=1;strokeWidth=1;" vertex="1" parent="JDOxM7exHH1KjUrmYhps-1">
          <mxGeometry x="400" y="130" width="160" height="150" as="geometry" />
        </mxCell>
        <mxCell id="JDOxM7exHH1KjUrmYhps-9" style="edgeStyle=orthogonalEdgeStyle;rounded=0;orthogonalLoop=1;jettySize=auto;html=1;exitX=0.5;exitY=1;exitDx=0;exitDy=0;" edge="1" parent="JDOxM7exHH1KjUrmYhps-1" source="JDOxM7exHH1KjUrmYhps-6" target="JDOxM7exHH1KjUrmYhps-7">
          <mxGeometry relative="1" as="geometry" />
        </mxCell>
        <mxCell id="JDOxM7exHH1KjUrmYhps-10" style="edgeStyle=orthogonalEdgeStyle;rounded=0;orthogonalLoop=1;jettySize=auto;html=1;exitX=0.5;exitY=1;exitDx=0;exitDy=0;entryX=0.5;entryY=0;entryDx=0;entryDy=0;" edge="1" parent="JDOxM7exHH1KjUrmYhps-1" source="JDOxM7exHH1KjUrmYhps-6" target="JDOxM7exHH1KjUrmYhps-8">
          <mxGeometry relative="1" as="geometry" />
        </mxCell>
        <mxCell id="JDOxM7exHH1KjUrmYhps-6" value="frame&amp;gt;=frameMax" style="rhombus;whiteSpace=wrap;html=1;strokeWidth=1;" vertex="1" parent="JDOxM7exHH1KjUrmYhps-1">
          <mxGeometry x="420" y="320" width="120" height="80" as="geometry" />
        </mxCell>
        <mxCell id="JDOxM7exHH1KjUrmYhps-12" style="edgeStyle=orthogonalEdgeStyle;rounded=0;orthogonalLoop=1;jettySize=auto;html=1;exitX=0.5;exitY=1;exitDx=0;exitDy=0;entryX=0.5;entryY=0;entryDx=0;entryDy=0;" edge="1" parent="JDOxM7exHH1KjUrmYhps-1" source="JDOxM7exHH1KjUrmYhps-7" target="JDOxM7exHH1KjUrmYhps-11">
          <mxGeometry relative="1" as="geometry" />
        </mxCell>
        <mxCell id="JDOxM7exHH1KjUrmYhps-7" value="frame=0" style="rounded=0;whiteSpace=wrap;html=1;strokeWidth=1;" vertex="1" parent="JDOxM7exHH1KjUrmYhps-1">
          <mxGeometry x="365" y="445" width="100" height="30" as="geometry" />
        </mxCell>
        <mxCell id="JDOxM7exHH1KjUrmYhps-13" style="edgeStyle=orthogonalEdgeStyle;rounded=0;orthogonalLoop=1;jettySize=auto;html=1;exitX=0.5;exitY=1;exitDx=0;exitDy=0;entryX=0.5;entryY=0;entryDx=0;entryDy=0;" edge="1" parent="JDOxM7exHH1KjUrmYhps-1" source="JDOxM7exHH1KjUrmYhps-8" target="JDOxM7exHH1KjUrmYhps-11">
          <mxGeometry relative="1" as="geometry" />
        </mxCell>
        <mxCell id="JDOxM7exHH1KjUrmYhps-8" value="frame++" style="rounded=0;whiteSpace=wrap;html=1;strokeWidth=1;" vertex="1" parent="JDOxM7exHH1KjUrmYhps-1">
          <mxGeometry x="505" y="445" width="100" height="30" as="geometry" />
        </mxCell>
        <mxCell id="JDOxM7exHH1KjUrmYhps-15" style="edgeStyle=orthogonalEdgeStyle;rounded=0;orthogonalLoop=1;jettySize=auto;html=1;exitX=0.5;exitY=1;exitDx=0;exitDy=0;entryX=0.5;entryY=0;entryDx=0;entryDy=0;" edge="1" parent="JDOxM7exHH1KjUrmYhps-1" source="JDOxM7exHH1KjUrmYhps-11" target="JDOxM7exHH1KjUrmYhps-14">
          <mxGeometry relative="1" as="geometry" />
        </mxCell>
        <mxCell id="JDOxM7exHH1KjUrmYhps-32" style="edgeStyle=orthogonalEdgeStyle;rounded=0;orthogonalLoop=1;jettySize=auto;html=1;exitX=1;exitY=0.5;exitDx=0;exitDy=0;entryX=1;entryY=0.5;entryDx=0;entryDy=0;" edge="1" parent="JDOxM7exHH1KjUrmYhps-1" source="JDOxM7exHH1KjUrmYhps-11" target="JDOxM7exHH1KjUrmYhps-16">
          <mxGeometry relative="1" as="geometry" />
        </mxCell>
        <mxCell id="JDOxM7exHH1KjUrmYhps-11" value="GetAsyncKeyState(VK_LSHIFT)" style="rhombus;whiteSpace=wrap;html=1;strokeWidth=1;" vertex="1" parent="JDOxM7exHH1KjUrmYhps-1">
          <mxGeometry x="375" y="525" width="220" height="80" as="geometry" />
        </mxCell>
        <mxCell id="JDOxM7exHH1KjUrmYhps-17" style="edgeStyle=orthogonalEdgeStyle;rounded=0;orthogonalLoop=1;jettySize=auto;html=1;exitX=0.5;exitY=1;exitDx=0;exitDy=0;entryX=0.5;entryY=0;entryDx=0;entryDy=0;" edge="1" parent="JDOxM7exHH1KjUrmYhps-1" source="JDOxM7exHH1KjUrmYhps-14" target="JDOxM7exHH1KjUrmYhps-16">
          <mxGeometry relative="1" as="geometry" />
        </mxCell>
        <mxCell id="JDOxM7exHH1KjUrmYhps-14" value="bIsRun = false" style="rounded=0;whiteSpace=wrap;html=1;strokeWidth=1;" vertex="1" parent="JDOxM7exHH1KjUrmYhps-1">
          <mxGeometry x="435" y="635" width="100" height="40" as="geometry" />
        </mxCell>
        <mxCell id="JDOxM7exHH1KjUrmYhps-22" style="edgeStyle=orthogonalEdgeStyle;rounded=0;orthogonalLoop=1;jettySize=auto;html=1;exitX=0.5;exitY=1;exitDx=0;exitDy=0;entryX=0.5;entryY=0;entryDx=0;entryDy=0;" edge="1" parent="JDOxM7exHH1KjUrmYhps-1" source="JDOxM7exHH1KjUrmYhps-16" target="JDOxM7exHH1KjUrmYhps-19">
          <mxGeometry relative="1" as="geometry" />
        </mxCell>
        <mxCell id="JDOxM7exHH1KjUrmYhps-16" value="player-&amp;gt;getInputs()" style="shape=process;whiteSpace=wrap;html=1;backgroundOutline=1;strokeWidth=1;" vertex="1" parent="JDOxM7exHH1KjUrmYhps-1">
          <mxGeometry x="410" y="715" width="150" height="40" as="geometry" />
        </mxCell>
        <mxCell id="JDOxM7exHH1KjUrmYhps-23" style="edgeStyle=orthogonalEdgeStyle;rounded=0;orthogonalLoop=1;jettySize=auto;html=1;exitX=0.5;exitY=1;exitDx=0;exitDy=0;entryX=0.5;entryY=0;entryDx=0;entryDy=0;" edge="1" parent="JDOxM7exHH1KjUrmYhps-1" source="JDOxM7exHH1KjUrmYhps-19" target="JDOxM7exHH1KjUrmYhps-20">
          <mxGeometry relative="1" as="geometry" />
        </mxCell>
        <mxCell id="JDOxM7exHH1KjUrmYhps-31" style="edgeStyle=orthogonalEdgeStyle;rounded=0;orthogonalLoop=1;jettySize=auto;html=1;exitX=0;exitY=0.5;exitDx=0;exitDy=0;entryX=0;entryY=0.5;entryDx=0;entryDy=0;" edge="1" parent="JDOxM7exHH1KjUrmYhps-1" source="JDOxM7exHH1KjUrmYhps-19" target="JDOxM7exHH1KjUrmYhps-5">
          <mxGeometry relative="1" as="geometry">
            <Array as="points">
              <mxPoint x="340" y="850" />
              <mxPoint x="340" y="205" />
            </Array>
          </mxGeometry>
        </mxCell>
        <mxCell id="JDOxM7exHH1KjUrmYhps-19" value="player-&amp;gt;getCurX() == pelletX &amp;amp;&amp;amp; player-&amp;gt;getCurY() == pelletY" style="rhombus;whiteSpace=wrap;html=1;strokeWidth=1;" vertex="1" parent="JDOxM7exHH1KjUrmYhps-1">
          <mxGeometry x="370" y="795" width="230" height="110" as="geometry" />
        </mxCell>
        <mxCell id="JDOxM7exHH1KjUrmYhps-24" style="edgeStyle=orthogonalEdgeStyle;rounded=0;orthogonalLoop=1;jettySize=auto;html=1;exitX=0.5;exitY=1;exitDx=0;exitDy=0;entryX=0.5;entryY=0;entryDx=0;entryDy=0;" edge="1" parent="JDOxM7exHH1KjUrmYhps-1" source="JDOxM7exHH1KjUrmYhps-20" target="JDOxM7exHH1KjUrmYhps-21">
          <mxGeometry relative="1" as="geometry" />
        </mxCell>
        <mxCell id="JDOxM7exHH1KjUrmYhps-20" value="&lt;div&gt;pelletX = rand() % cols&lt;/div&gt;&lt;div&gt;pelletY = rand() % rows&lt;/div&gt;" style="rounded=0;whiteSpace=wrap;html=1;strokeWidth=1;" vertex="1" parent="JDOxM7exHH1KjUrmYhps-1">
          <mxGeometry x="405" y="940" width="160" height="60" as="geometry" />
        </mxCell>
        <mxCell id="JDOxM7exHH1KjUrmYhps-34" style="edgeStyle=orthogonalEdgeStyle;rounded=0;orthogonalLoop=1;jettySize=auto;html=1;exitX=0;exitY=0.5;exitDx=0;exitDy=0;entryX=0;entryY=0.5;entryDx=0;entryDy=0;" edge="1" parent="JDOxM7exHH1KjUrmYhps-1" source="JDOxM7exHH1KjUrmYhps-21" target="JDOxM7exHH1KjUrmYhps-5">
          <mxGeometry relative="1" as="geometry">
            <Array as="points">
              <mxPoint x="340" y="1050" />
              <mxPoint x="340" y="205" />
            </Array>
          </mxGeometry>
        </mxCell>
        <mxCell id="JDOxM7exHH1KjUrmYhps-21" value="player-&amp;gt;addToArry()" style="shape=process;whiteSpace=wrap;html=1;backgroundOutline=1;strokeWidth=1;" vertex="1" parent="JDOxM7exHH1KjUrmYhps-1">
          <mxGeometry x="400" y="1030" width="170" height="40" as="geometry" />
        </mxCell>
        <mxCell id="JDOxM7exHH1KjUrmYhps-33" style="edgeStyle=orthogonalEdgeStyle;rounded=0;orthogonalLoop=1;jettySize=auto;html=1;exitX=0.5;exitY=1;exitDx=0;exitDy=0;entryX=0.5;entryY=0;entryDx=0;entryDy=0;" edge="1" parent="JDOxM7exHH1KjUrmYhps-1" source="JDOxM7exHH1KjUrmYhps-25" target="JDOxM7exHH1KjUrmYhps-27">
          <mxGeometry relative="1" as="geometry" />
        </mxCell>
        <mxCell id="JDOxM7exHH1KjUrmYhps-25" value="&lt;div&gt;cout:&lt;/div&gt;&lt;div&gt;Game Over Text&lt;br&gt;&lt;/div&gt;" style="shape=parallelogram;perimeter=parallelogramPerimeter;whiteSpace=wrap;html=1;strokeWidth=1;" vertex="1" parent="JDOxM7exHH1KjUrmYhps-1">
          <mxGeometry x="670" y="175" width="120" height="60" as="geometry" />
        </mxCell>
        <mxCell id="JDOxM7exHH1KjUrmYhps-27" value="exit" style="ellipse;whiteSpace=wrap;html=1;strokeWidth=1;" vertex="1" parent="JDOxM7exHH1KjUrmYhps-1">
          <mxGeometry x="670" y="300" width="120" height="50" as="geometry" />
        </mxCell>
        <mxCell id="JDOxM7exHH1KjUrmYhps-35" value="&lt;div&gt;False&lt;/div&gt;" style="text;html=1;strokeColor=none;fillColor=none;align=center;verticalAlign=middle;whiteSpace=wrap;rounded=0;" vertex="1" parent="JDOxM7exHH1KjUrmYhps-1">
          <mxGeometry x="600" y="175" width="40" height="20" as="geometry" />
        </mxCell>
        <mxCell id="JDOxM7exHH1KjUrmYhps-36" value="&lt;div&gt;False&lt;/div&gt;" style="text;html=1;strokeColor=none;fillColor=none;align=center;verticalAlign=middle;whiteSpace=wrap;rounded=0;" vertex="1" parent="JDOxM7exHH1KjUrmYhps-1">
          <mxGeometry x="505" y="400" width="40" height="20" as="geometry" />
        </mxCell>
        <mxCell id="JDOxM7exHH1KjUrmYhps-38" value="&lt;div&gt;False&lt;/div&gt;" style="text;html=1;strokeColor=none;fillColor=none;align=center;verticalAlign=middle;whiteSpace=wrap;rounded=0;" vertex="1" parent="JDOxM7exHH1KjUrmYhps-1">
          <mxGeometry x="620" y="630" width="40" height="20" as="geometry" />
        </mxCell>
        <mxCell id="JDOxM7exHH1KjUrmYhps-39" value="&lt;div&gt;False&lt;/div&gt;" style="text;html=1;strokeColor=none;fillColor=none;align=center;verticalAlign=middle;whiteSpace=wrap;rounded=0;" vertex="1" parent="JDOxM7exHH1KjUrmYhps-1">
          <mxGeometry x="340" y="820" width="40" height="20" as="geometry" />
        </mxCell>
        <mxCell id="JDOxM7exHH1KjUrmYhps-41" value="True" style="text;html=1;strokeColor=none;fillColor=none;align=center;verticalAlign=middle;whiteSpace=wrap;rounded=0;" vertex="1" parent="JDOxM7exHH1KjUrmYhps-1">
          <mxGeometry x="435" y="280" width="40" height="20" as="geometry" />
        </mxCell>
        <mxCell id="JDOxM7exHH1KjUrmYhps-42" value="True" style="text;html=1;strokeColor=none;fillColor=none;align=center;verticalAlign=middle;whiteSpace=wrap;rounded=0;" vertex="1" parent="JDOxM7exHH1KjUrmYhps-1">
          <mxGeometry x="420" y="400" width="40" height="20" as="geometry" />
        </mxCell>
        <mxCell id="JDOxM7exHH1KjUrmYhps-43" value="True" style="text;html=1;strokeColor=none;fillColor=none;align=center;verticalAlign=middle;whiteSpace=wrap;rounded=0;" vertex="1" parent="JDOxM7exHH1KjUrmYhps-1">
          <mxGeometry x="440" y="605" width="40" height="20" as="geometry" />
        </mxCell>
        <mxCell id="JDOxM7exHH1KjUrmYhps-44" value="True" style="text;html=1;strokeColor=none;fillColor=none;align=center;verticalAlign=middle;whiteSpace=wrap;rounded=0;" vertex="1" parent="JDOxM7exHH1KjUrmYhps-1">
          <mxGeometry x="495" y="910" width="40" height="20" as="geometry" />
        </mxCell>
      </root>
    </mxGraphModel>
  </diagram>
</mxfile>
